<svg width="220" height="64" viewBox="0 0 220 64" fill="none" xmlns="http://www.w3.org/2000/svg">
  <defs>
    <linearGradient id="g1" x1="10" y1="8" x2="70" y2="58" gradientUnits="userSpaceOnUse">
      <stop stop-color="#1F6FEB"/>
      <stop offset="0.55" stop-color="#00A99D"/>
      <stop offset="1" stop-color="#C98A2E"/>
    </linearGradient>
    <linearGradient id="g2" x1="92" y1="18" x2="205" y2="46" gradientUnits="userSpaceOnUse">
      <stop stop-color="#0B1F3A"/>
      <stop offset="0.68" stop-color="#0B1F3A"/>
      <stop offset="0.69" stop-color="#00A99D"/>
      <stop offset="1" stop-color="#00A99D"/>
    </linearGradient>
  </defs>
  <rect x="7" y="17" width="40" height="40" rx="13" fill="url(#g1)"/>
  <rect x="24" y="7" width="40" height="40" rx="13" fill="url(#g1)" opacity="0.92"/>
  <path d="M21 41V24.5C21 22.5 23.4 21.5 24.8 22.9L35.7 33.8L51.4 17.8C53.6 15.6 57.2 17.3 57.2 20.3V44.4C57.2 46.2 55.7 47.7 53.9 47.7C52.1 47.7 50.6 46.2 50.6 44.4V30.2L38 43C36.7 44.3 34.6 44.3 33.3 43L27.7 37.4V41C27.7 42.9 26.2 44.4 24.4 44.4C22.5 44.4 21 42.9 21 41Z" fill="white"/>
  <circle cx="68" cy="13" r="4.5" fill="#C98A2E"/>
  <circle cx="76" cy="24" r="3.5" fill="#00A99D"/>
  <circle cx="65" cy="31" r="3" fill="#1F6FEB"/>
  <text x="88" y="44" font-family="Inter, Arial, sans-serif" font-size="34" font-weight="800" fill="url(#g2)">medivo</text>
</svg>
